<svg xmlns="http://www.w3.org/2000/svg" viewBox="22.4 -55.1 363.1 272.3" width="400" height="300" role="img" aria-hidden="true"><defs><radialGradient id="shade"><stop offset="0" stop-color="#000" stop-opacity="0.5"/><stop offset="0.6" stop-color="#000" stop-opacity="0.18"/><stop offset="1" stop-color="#000" stop-opacity="0"/></radialGradient></defs><ellipse cx="203.9" cy="168.8" rx="132.2" ry="30.7" fill="url(#shade)"/><polygon points="187.7,34.5 198.5,40.8 98.9,98.3 88.1,92" fill="#b98a57" stroke="#5e4122" stroke-width="0.8" stroke-linejoin="round"/><polygon points="88.1,102 98.9,108.3 98.9,98.3 88.1,92" fill="#8f6639" stroke="#5e4122" stroke-width="0.8" stroke-linejoin="round"/><polygon points="198.5,50.8 98.9,108.3 98.9,98.3 198.5,40.8" fill="#77532d" stroke="#5e4122" stroke-width="0.8" stroke-linejoin="round"/><polygon points="249.4,70.1 260.2,76.4 160.6,133.9 149.8,127.6" fill="#b98a57" stroke="#5e4122" stroke-width="0.8" stroke-linejoin="round"/><polygon points="149.8,137.6 160.6,143.9 160.6,133.9 149.8,127.6" fill="#8f6639" stroke="#5e4122" stroke-width="0.8" stroke-linejoin="round"/><polygon points="260.2,86.4 160.6,143.9 160.6,133.9 260.2,76.4" fill="#77532d" stroke="#5e4122" stroke-width="0.8" stroke-linejoin="round"/><polygon points="311.1,105.8 321.9,112 222.3,169.5 211.5,163.3" fill="#b98a57" stroke="#5e4122" stroke-width="0.8" stroke-linejoin="round"/><polygon points="211.5,173.3 222.3,179.5 222.3,169.5 211.5,163.3" fill="#8f6639" stroke="#5e4122" stroke-width="0.8" stroke-linejoin="round"/><polygon points="321.9,122 222.3,179.5 222.3,169.5 321.9,112" fill="#77532d" stroke="#5e4122" stroke-width="0.8" stroke-linejoin="round"/><polygon points="187.7,29.5 321.9,107 308.9,114.5 174.7,37" fill="#b98a57" stroke="#5e4122" stroke-width="0.8" stroke-linejoin="round"/><polygon points="174.7,42 308.9,119.5 308.9,114.5 174.7,37" fill="#8f6639" stroke="#5e4122" stroke-width="0.8" stroke-linejoin="round"/><polygon points="321.9,112 308.9,119.5 308.9,114.5 321.9,107" fill="#77532d" stroke="#5e4122" stroke-width="0.8" stroke-linejoin="round"/><polygon points="166,42 300.3,119.5 287.3,127 153,49.5" fill="#b98a57" stroke="#5e4122" stroke-width="0.8" stroke-linejoin="round"/><polygon points="153,54.5 287.3,132 287.3,127 153,49.5" fill="#8f6639" stroke="#5e4122" stroke-width="0.8" stroke-linejoin="round"/><polygon points="300.3,124.5 287.3,132 287.3,127 300.3,119.5" fill="#77532d" stroke="#5e4122" stroke-width="0.8" stroke-linejoin="round"/><polygon points="144.4,54.5 278.6,132 265.6,139.5 131.4,62" fill="#b98a57" stroke="#5e4122" stroke-width="0.8" stroke-linejoin="round"/><polygon points="131.4,67 265.6,144.5 265.6,139.5 131.4,62" fill="#8f6639" stroke="#5e4122" stroke-width="0.8" stroke-linejoin="round"/><polygon points="278.6,137 265.6,144.5 265.6,139.5 278.6,132" fill="#77532d" stroke="#5e4122" stroke-width="0.8" stroke-linejoin="round"/><polygon points="122.7,67 257,144.5 244,152 109.7,74.5" fill="#b98a57" stroke="#5e4122" stroke-width="0.8" stroke-linejoin="round"/><polygon points="109.7,79.5 244,157 244,152 109.7,74.5" fill="#8f6639" stroke="#5e4122" stroke-width="0.8" stroke-linejoin="round"/><polygon points="257,149.5 244,157 244,152 257,144.5" fill="#77532d" stroke="#5e4122" stroke-width="0.8" stroke-linejoin="round"/><polygon points="101.1,79.5 235.3,157 222.3,164.5 88.1,87" fill="#b98a57" stroke="#5e4122" stroke-width="0.8" stroke-linejoin="round"/><polygon points="88.1,92 222.3,169.5 222.3,164.5 88.1,87" fill="#8f6639" stroke="#5e4122" stroke-width="0.8" stroke-linejoin="round"/><polygon points="235.3,162 222.3,169.5 222.3,164.5 235.3,157" fill="#77532d" stroke="#5e4122" stroke-width="0.8" stroke-linejoin="round"/><polygon points="187.7,0.8 252.6,38.3 241.8,44.5 176.9,7" fill="#eceae3" stroke="#9d9a92" stroke-width="0.8" stroke-linejoin="round"/><polygon points="176.9,38.3 241.8,75.8 241.8,44.5 176.9,7" fill="#d2cfc6" stroke="#9d9a92" stroke-width="0.8" stroke-linejoin="round"/><polygon points="252.6,69.5 241.8,75.8 241.8,44.5 252.6,38.3" fill="#b7b4ab" stroke="#9d9a92" stroke-width="0.8" stroke-linejoin="round"/><polygon points="176.3,7.3 241.3,44.8 230.4,51.1 165.5,13.6" fill="#eceae3" stroke="#9d9a92" stroke-width="0.8" stroke-linejoin="round"/><polygon points="165.5,44.8 230.4,82.3 230.4,51.1 165.5,13.6" fill="#d2cfc6" stroke="#9d9a92" stroke-width="0.8" stroke-linejoin="round"/><polygon points="241.3,76.1 230.4,82.3 230.4,51.1 241.3,44.8" fill="#b7b4ab" stroke="#9d9a92" stroke-width="0.8" stroke-linejoin="round"/><polygon points="164.9,13.9 229.9,51.4 219.1,57.6 154.1,20.1" fill="#eceae3" stroke="#9d9a92" stroke-width="0.8" stroke-linejoin="round"/><polygon points="154.1,51.4 219.1,88.9 219.1,57.6 154.1,20.1" fill="#d2cfc6" stroke="#9d9a92" stroke-width="0.8" stroke-linejoin="round"/><polygon points="229.9,82.6 219.1,88.9 219.1,57.6 229.9,51.4" fill="#b7b4ab" stroke="#9d9a92" stroke-width="0.8" stroke-linejoin="round"/><polygon points="153.6,20.4 218.5,57.9 207.7,64.2 142.8,26.7" fill="#eceae3" stroke="#9d9a92" stroke-width="0.8" stroke-linejoin="round"/><polygon points="142.8,57.9 207.7,95.4 207.7,64.2 142.8,26.7" fill="#d2cfc6" stroke="#9d9a92" stroke-width="0.8" stroke-linejoin="round"/><polygon points="218.5,89.2 207.7,95.4 207.7,64.2 218.5,57.9" fill="#b7b4ab" stroke="#9d9a92" stroke-width="0.8" stroke-linejoin="round"/><polygon points="142.2,27 207.2,64.5 196.3,70.8 131.4,33.3" fill="#eceae3" stroke="#9d9a92" stroke-width="0.8" stroke-linejoin="round"/><polygon points="131.4,64.5 196.3,102 196.3,70.8 131.4,33.3" fill="#d2cfc6" stroke="#9d9a92" stroke-width="0.8" stroke-linejoin="round"/><polygon points="207.2,95.8 196.3,102 196.3,70.8 207.2,64.5" fill="#b7b4ab" stroke="#9d9a92" stroke-width="0.8" stroke-linejoin="round"/><polygon points="130.8,33.6 195.8,71.1 185,77.3 120,39.8" fill="#eceae3" stroke="#9d9a92" stroke-width="0.8" stroke-linejoin="round"/><polygon points="120,71.1 185,108.6 185,77.3 120,39.8" fill="#d2cfc6" stroke="#9d9a92" stroke-width="0.8" stroke-linejoin="round"/><polygon points="195.8,102.3 185,108.6 185,77.3 195.8,71.1" fill="#b7b4ab" stroke="#9d9a92" stroke-width="0.8" stroke-linejoin="round"/><polygon points="119.5,40.1 184.4,77.6 173.6,83.9 108.7,46.4" fill="#eceae3" stroke="#9d9a92" stroke-width="0.8" stroke-linejoin="round"/><polygon points="108.7,77.6 173.6,115.1 173.6,83.9 108.7,46.4" fill="#d2cfc6" stroke="#9d9a92" stroke-width="0.8" stroke-linejoin="round"/><polygon points="184.4,108.9 173.6,115.1 173.6,83.9 184.4,77.6" fill="#b7b4ab" stroke="#9d9a92" stroke-width="0.8" stroke-linejoin="round"/><polygon points="108.1,46.7 173.1,84.2 162.2,90.4 97.3,52.9" fill="#eceae3" stroke="#9d9a92" stroke-width="0.8" stroke-linejoin="round"/><polygon points="97.3,84.2 162.2,121.7 162.2,90.4 97.3,52.9" fill="#d2cfc6" stroke="#9d9a92" stroke-width="0.8" stroke-linejoin="round"/><polygon points="173.1,115.4 162.2,121.7 162.2,90.4 173.1,84.2" fill="#b7b4ab" stroke="#9d9a92" stroke-width="0.8" stroke-linejoin="round"/><polygon points="96.7,53.3 161.7,90.8 150.9,97 85.9,59.5" fill="#eceae3" stroke="#9d9a92" stroke-width="0.8" stroke-linejoin="round"/><polygon points="85.9,90.8 150.9,128.3 150.9,97 85.9,59.5" fill="#d2cfc6" stroke="#9d9a92" stroke-width="0.8" stroke-linejoin="round"/><polygon points="161.7,122 150.9,128.3 150.9,97 161.7,90.8" fill="#b7b4ab" stroke="#9d9a92" stroke-width="0.8" stroke-linejoin="round"/><polygon points="253.7,38.9 318.7,76.4 307.8,82.6 242.9,45.1" fill="#eceae3" stroke="#9d9a92" stroke-width="0.8" stroke-linejoin="round"/><polygon points="242.9,76.4 307.8,113.9 307.8,82.6 242.9,45.1" fill="#d2cfc6" stroke="#9d9a92" stroke-width="0.8" stroke-linejoin="round"/><polygon points="318.7,107.6 307.8,113.9 307.8,82.6 318.7,76.4" fill="#b7b4ab" stroke="#9d9a92" stroke-width="0.8" stroke-linejoin="round"/><polygon points="242.3,45.4 307.3,82.9 296.5,89.2 231.5,51.7" fill="#eceae3" stroke="#9d9a92" stroke-width="0.8" stroke-linejoin="round"/><polygon points="231.5,82.9 296.5,120.4 296.5,89.2 231.5,51.7" fill="#d2cfc6" stroke="#9d9a92" stroke-width="0.8" stroke-linejoin="round"/><polygon points="307.3,114.2 296.5,120.4 296.5,89.2 307.3,82.9" fill="#b7b4ab" stroke="#9d9a92" stroke-width="0.8" stroke-linejoin="round"/><polygon points="231,52 295.9,89.5 285.1,95.8 220.2,58.3" fill="#eceae3" stroke="#9d9a92" stroke-width="0.8" stroke-linejoin="round"/><polygon points="220.2,89.5 285.1,127 285.1,95.8 220.2,58.3" fill="#d2cfc6" stroke="#9d9a92" stroke-width="0.8" stroke-linejoin="round"/><polygon points="295.9,120.8 285.1,127 285.1,95.8 295.9,89.5" fill="#b7b4ab" stroke="#9d9a92" stroke-width="0.8" stroke-linejoin="round"/><polygon points="219.6,58.6 284.6,96.1 273.7,102.3 208.8,64.8" fill="#eceae3" stroke="#9d9a92" stroke-width="0.8" stroke-linejoin="round"/><polygon points="208.8,96.1 273.7,133.6 273.7,102.3 208.8,64.8" fill="#d2cfc6" stroke="#9d9a92" stroke-width="0.8" stroke-linejoin="round"/><polygon points="284.6,127.3 273.7,133.6 273.7,102.3 284.6,96.1" fill="#b7b4ab" stroke="#9d9a92" stroke-width="0.8" stroke-linejoin="round"/><polygon points="208.2,65.1 273.2,102.6 262.4,108.9 197.4,71.4" fill="#eceae3" stroke="#9d9a92" stroke-width="0.8" stroke-linejoin="round"/><polygon points="197.4,102.6 262.4,140.1 262.4,108.9 197.4,71.4" fill="#d2cfc6" stroke="#9d9a92" stroke-width="0.8" stroke-linejoin="round"/><polygon points="273.2,133.9 262.4,140.1 262.4,108.9 273.2,102.6" fill="#b7b4ab" stroke="#9d9a92" stroke-width="0.8" stroke-linejoin="round"/><polygon points="196.9,71.7 261.8,109.2 251,115.4 186.1,77.9" fill="#eceae3" stroke="#9d9a92" stroke-width="0.8" stroke-linejoin="round"/><polygon points="186.1,109.2 251,146.7 251,115.4 186.1,77.9" fill="#d2cfc6" stroke="#9d9a92" stroke-width="0.8" stroke-linejoin="round"/><polygon points="261.8,140.4 251,146.7 251,115.4 261.8,109.2" fill="#b7b4ab" stroke="#9d9a92" stroke-width="0.8" stroke-linejoin="round"/><polygon points="185.5,78.3 250.5,115.8 239.6,122 174.7,84.5" fill="#eceae3" stroke="#9d9a92" stroke-width="0.8" stroke-linejoin="round"/><polygon points="174.7,115.8 239.6,153.3 239.6,122 174.7,84.5" fill="#d2cfc6" stroke="#9d9a92" stroke-width="0.8" stroke-linejoin="round"/><polygon points="250.5,147 239.6,153.3 239.6,122 250.5,115.8" fill="#b7b4ab" stroke="#9d9a92" stroke-width="0.8" stroke-linejoin="round"/><polygon points="174.1,84.8 239.1,122.3 228.3,128.6 163.3,91.1" fill="#eceae3" stroke="#9d9a92" stroke-width="0.8" stroke-linejoin="round"/><polygon points="163.3,122.3 228.3,159.8 228.3,128.6 163.3,91.1" fill="#d2cfc6" stroke="#9d9a92" stroke-width="0.8" stroke-linejoin="round"/><polygon points="239.1,153.6 228.3,159.8 228.3,128.6 239.1,122.3" fill="#b7b4ab" stroke="#9d9a92" stroke-width="0.8" stroke-linejoin="round"/><polygon points="162.8,91.4 227.7,128.9 216.9,135.1 152,97.6" fill="#eceae3" stroke="#9d9a92" stroke-width="0.8" stroke-linejoin="round"/><polygon points="152,128.9 216.9,166.4 216.9,135.1 152,97.6" fill="#d2cfc6" stroke="#9d9a92" stroke-width="0.8" stroke-linejoin="round"/><polygon points="227.7,160.1 216.9,166.4 216.9,135.1 227.7,128.9" fill="#b7b4ab" stroke="#9d9a92" stroke-width="0.8" stroke-linejoin="round"/><polygon points="187.7,-31.1 252.6,6.4 241.8,12.6 176.9,-24.9" fill="#eceae3" stroke="#9d9a92" stroke-width="0.8" stroke-linejoin="round"/><polygon points="176.9,6.4 241.8,43.9 241.8,12.6 176.9,-24.9" fill="#d2cfc6" stroke="#9d9a92" stroke-width="0.8" stroke-linejoin="round"/><polygon points="252.6,37.6 241.8,43.9 241.8,12.6 252.6,6.4" fill="#b7b4ab" stroke="#9d9a92" stroke-width="0.8" stroke-linejoin="round"/><polygon points="176.3,-24.6 241.3,12.9 230.4,19.2 165.5,-18.3" fill="#eceae3" stroke="#9d9a92" stroke-width="0.8" stroke-linejoin="round"/><polygon points="165.5,12.9 230.4,50.4 230.4,19.2 165.5,-18.3" fill="#d2cfc6" stroke="#9d9a92" stroke-width="0.8" stroke-linejoin="round"/><polygon points="241.3,44.2 230.4,50.4 230.4,19.2 241.3,12.9" fill="#b7b4ab" stroke="#9d9a92" stroke-width="0.8" stroke-linejoin="round"/><polygon points="164.9,-18 229.9,19.5 219.1,25.8 154.1,-11.7" fill="#eceae3" stroke="#9d9a92" stroke-width="0.8" stroke-linejoin="round"/><polygon points="154.1,19.5 219.1,57 219.1,25.8 154.1,-11.7" fill="#d2cfc6" stroke="#9d9a92" stroke-width="0.8" stroke-linejoin="round"/><polygon points="229.9,50.8 219.1,57 219.1,25.8 229.9,19.5" fill="#b7b4ab" stroke="#9d9a92" stroke-width="0.8" stroke-linejoin="round"/><polygon points="153.6,-11.4 218.5,26.1 207.7,32.3 142.8,-5.2" fill="#eceae3" stroke="#9d9a92" stroke-width="0.8" stroke-linejoin="round"/><polygon points="142.8,26.1 207.7,63.6 207.7,32.3 142.8,-5.2" fill="#d2cfc6" stroke="#9d9a92" stroke-width="0.8" stroke-linejoin="round"/><polygon points="218.5,57.3 207.7,63.6 207.7,32.3 218.5,26.1" fill="#b7b4ab" stroke="#9d9a92" stroke-width="0.8" stroke-linejoin="round"/><polygon points="142.2,-4.9 207.2,32.6 196.3,38.9 131.4,1.4" fill="#eceae3" stroke="#9d9a92" stroke-width="0.8" stroke-linejoin="round"/><polygon points="131.4,32.6 196.3,70.1 196.3,38.9 131.4,1.4" fill="#d2cfc6" stroke="#9d9a92" stroke-width="0.8" stroke-linejoin="round"/><polygon points="207.2,63.9 196.3,70.1 196.3,38.9 207.2,32.6" fill="#b7b4ab" stroke="#9d9a92" stroke-width="0.8" stroke-linejoin="round"/><polygon points="130.8,1.7 195.8,39.2 185,45.4 120,7.9" fill="#eceae3" stroke="#9d9a92" stroke-width="0.8" stroke-linejoin="round"/><polygon points="120,39.2 185,76.7 185,45.4 120,7.9" fill="#d2cfc6" stroke="#9d9a92" stroke-width="0.8" stroke-linejoin="round"/><polygon points="195.8,70.4 185,76.7 185,45.4 195.8,39.2" fill="#b7b4ab" stroke="#9d9a92" stroke-width="0.8" stroke-linejoin="round"/><polygon points="119.5,8.3 184.4,45.8 173.6,52 108.7,14.5" fill="#eceae3" stroke="#9d9a92" stroke-width="0.8" stroke-linejoin="round"/><polygon points="108.7,45.8 173.6,83.3 173.6,52 108.7,14.5" fill="#d2cfc6" stroke="#9d9a92" stroke-width="0.8" stroke-linejoin="round"/><polygon points="184.4,77 173.6,83.3 173.6,52 184.4,45.8" fill="#b7b4ab" stroke="#9d9a92" stroke-width="0.8" stroke-linejoin="round"/><polygon points="108.1,14.8 173.1,52.3 162.2,58.6 97.3,21.1" fill="#eceae3" stroke="#9d9a92" stroke-width="0.8" stroke-linejoin="round"/><polygon points="97.3,52.3 162.2,89.8 162.2,58.6 97.3,21.1" fill="#d2cfc6" stroke="#9d9a92" stroke-width="0.8" stroke-linejoin="round"/><polygon points="173.1,83.6 162.2,89.8 162.2,58.6 173.1,52.3" fill="#b7b4ab" stroke="#9d9a92" stroke-width="0.8" stroke-linejoin="round"/><polygon points="96.7,21.4 161.7,58.9 150.9,65.1 85.9,27.6" fill="#eceae3" stroke="#9d9a92" stroke-width="0.8" stroke-linejoin="round"/><polygon points="85.9,58.9 150.9,96.4 150.9,65.1 85.9,27.6" fill="#d2cfc6" stroke="#9d9a92" stroke-width="0.8" stroke-linejoin="round"/><polygon points="161.7,90.1 150.9,96.4 150.9,65.1 161.7,58.9" fill="#b7b4ab" stroke="#9d9a92" stroke-width="0.8" stroke-linejoin="round"/><polygon points="253.7,7 318.7,44.5 307.8,50.8 242.9,13.3" fill="#eceae3" stroke="#9d9a92" stroke-width="0.8" stroke-linejoin="round"/><polygon points="242.9,44.5 307.8,82 307.8,50.8 242.9,13.3" fill="#d2cfc6" stroke="#9d9a92" stroke-width="0.8" stroke-linejoin="round"/><polygon points="318.7,75.8 307.8,82 307.8,50.8 318.7,44.5" fill="#b7b4ab" stroke="#9d9a92" stroke-width="0.8" stroke-linejoin="round"/><polygon points="242.3,13.6 307.3,51.1 296.5,57.3 231.5,19.8" fill="#eceae3" stroke="#9d9a92" stroke-width="0.8" stroke-linejoin="round"/><polygon points="231.5,51.1 296.5,88.6 296.5,57.3 231.5,19.8" fill="#d2cfc6" stroke="#9d9a92" stroke-width="0.8" stroke-linejoin="round"/><polygon points="307.3,82.3 296.5,88.6 296.5,57.3 307.3,51.1" fill="#b7b4ab" stroke="#9d9a92" stroke-width="0.8" stroke-linejoin="round"/><polygon points="231,20.1 295.9,57.6 285.1,63.9 220.2,26.4" fill="#eceae3" stroke="#9d9a92" stroke-width="0.8" stroke-linejoin="round"/><polygon points="220.2,57.6 285.1,95.1 285.1,63.9 220.2,26.4" fill="#d2cfc6" stroke="#9d9a92" stroke-width="0.8" stroke-linejoin="round"/><polygon points="295.9,88.9 285.1,95.1 285.1,63.9 295.9,57.6" fill="#b7b4ab" stroke="#9d9a92" stroke-width="0.8" stroke-linejoin="round"/><polygon points="219.6,26.7 284.6,64.2 273.7,70.4 208.8,32.9" fill="#eceae3" stroke="#9d9a92" stroke-width="0.8" stroke-linejoin="round"/><polygon points="208.8,64.2 273.7,101.7 273.7,70.4 208.8,32.9" fill="#d2cfc6" stroke="#9d9a92" stroke-width="0.8" stroke-linejoin="round"/><polygon points="284.6,95.4 273.7,101.7 273.7,70.4 284.6,64.2" fill="#b7b4ab" stroke="#9d9a92" stroke-width="0.8" stroke-linejoin="round"/><polygon points="208.2,33.3 273.2,70.8 262.4,77 197.4,39.5" fill="#eceae3" stroke="#9d9a92" stroke-width="0.8" stroke-linejoin="round"/><polygon points="197.4,70.8 262.4,108.3 262.4,77 197.4,39.5" fill="#d2cfc6" stroke="#9d9a92" stroke-width="0.8" stroke-linejoin="round"/><polygon points="273.2,102 262.4,108.3 262.4,77 273.2,70.8" fill="#b7b4ab" stroke="#9d9a92" stroke-width="0.8" stroke-linejoin="round"/><polygon points="196.9,39.8 261.8,77.3 251,83.6 186.1,46.1" fill="#eceae3" stroke="#9d9a92" stroke-width="0.8" stroke-linejoin="round"/><polygon points="186.1,77.3 251,114.8 251,83.6 186.1,46.1" fill="#d2cfc6" stroke="#9d9a92" stroke-width="0.8" stroke-linejoin="round"/><polygon points="261.8,108.6 251,114.8 251,83.6 261.8,77.3" fill="#b7b4ab" stroke="#9d9a92" stroke-width="0.8" stroke-linejoin="round"/><polygon points="185.5,46.4 250.5,83.9 239.6,90.1 174.7,52.6" fill="#eceae3" stroke="#9d9a92" stroke-width="0.8" stroke-linejoin="round"/><polygon points="174.7,83.9 239.6,121.4 239.6,90.1 174.7,52.6" fill="#d2cfc6" stroke="#9d9a92" stroke-width="0.8" stroke-linejoin="round"/><polygon points="250.5,115.1 239.6,121.4 239.6,90.1 250.5,83.9" fill="#b7b4ab" stroke="#9d9a92" stroke-width="0.8" stroke-linejoin="round"/><polygon points="174.1,52.9 239.1,90.4 228.3,96.7 163.3,59.2" fill="#eceae3" stroke="#9d9a92" stroke-width="0.8" stroke-linejoin="round"/><polygon points="163.3,90.4 228.3,127.9 228.3,96.7 163.3,59.2" fill="#d2cfc6" stroke="#9d9a92" stroke-width="0.8" stroke-linejoin="round"/><polygon points="239.1,121.7 228.3,127.9 228.3,96.7 239.1,90.4" fill="#b7b4ab" stroke="#9d9a92" stroke-width="0.8" stroke-linejoin="round"/><polygon points="162.8,59.5 227.7,97 216.9,103.3 152,65.8" fill="#eceae3" stroke="#9d9a92" stroke-width="0.8" stroke-linejoin="round"/><polygon points="152,97 216.9,134.5 216.9,103.3 152,65.8" fill="#d2cfc6" stroke="#9d9a92" stroke-width="0.8" stroke-linejoin="round"/><polygon points="227.7,128.3 216.9,134.5 216.9,103.3 227.7,97" fill="#b7b4ab" stroke="#9d9a92" stroke-width="0.8" stroke-linejoin="round"/></svg>
