<svg xmlns="http://www.w3.org/2000/svg" viewBox="12.7 -64 384.7 288.5" width="400" height="300" role="img" aria-hidden="true"><defs><radialGradient id="shade"><stop offset="0" stop-color="#000" stop-opacity="0.5"/><stop offset="0.6" stop-color="#000" stop-opacity="0.18"/><stop offset="1" stop-color="#000" stop-opacity="0"/></radialGradient></defs><ellipse cx="205" cy="174.9" rx="130.9" ry="30.4" fill="url(#shade)"/><polygon points="186.3,39.7 198,46.5 99.8,103.2 88.1,96.4" fill="#b98a57" stroke="#5e4122" stroke-width="0.8" stroke-linejoin="round"/><polygon points="88.1,107.2 99.8,114 99.8,103.2 88.1,96.4" fill="#8f6639" stroke="#5e4122" stroke-width="0.8" stroke-linejoin="round"/><polygon points="198,57.3 99.8,114 99.8,103.2 198,46.5" fill="#77532d" stroke="#5e4122" stroke-width="0.8" stroke-linejoin="round"/><polygon points="248.3,75.5 259.9,82.2 161.7,138.9 150.1,132.2" fill="#b98a57" stroke="#5e4122" stroke-width="0.8" stroke-linejoin="round"/><polygon points="150.1,143 161.7,149.7 161.7,138.9 150.1,132.2" fill="#8f6639" stroke="#5e4122" stroke-width="0.8" stroke-linejoin="round"/><polygon points="259.9,93 161.7,149.7 161.7,138.9 259.9,82.2" fill="#77532d" stroke="#5e4122" stroke-width="0.8" stroke-linejoin="round"/><polygon points="310.2,111.3 321.9,118 223.7,174.7 212,168" fill="#b98a57" stroke="#5e4122" stroke-width="0.8" stroke-linejoin="round"/><polygon points="212,178.8 223.7,185.5 223.7,174.7 212,168" fill="#8f6639" stroke="#5e4122" stroke-width="0.8" stroke-linejoin="round"/><polygon points="321.9,128.8 223.7,185.5 223.7,174.7 321.9,118" fill="#77532d" stroke="#5e4122" stroke-width="0.8" stroke-linejoin="round"/><polygon points="186.3,34.3 321.9,112.6 307.9,120.7 172.3,42.4" fill="#b98a57" stroke="#5e4122" stroke-width="0.8" stroke-linejoin="round"/><polygon points="172.3,47.8 307.9,126.1 307.9,120.7 172.3,42.4" fill="#8f6639" stroke="#5e4122" stroke-width="0.8" stroke-linejoin="round"/><polygon points="321.9,118 307.9,126.1 307.9,120.7 321.9,112.6" fill="#77532d" stroke="#5e4122" stroke-width="0.8" stroke-linejoin="round"/><polygon points="165.2,46.5 300.9,124.7 286.8,132.9 151.2,54.6" fill="#b98a57" stroke="#5e4122" stroke-width="0.8" stroke-linejoin="round"/><polygon points="151.2,60 286.8,138.3 286.8,132.9 151.2,54.6" fill="#8f6639" stroke="#5e4122" stroke-width="0.8" stroke-linejoin="round"/><polygon points="300.9,130.1 286.8,138.3 286.8,132.9 300.9,124.7" fill="#77532d" stroke="#5e4122" stroke-width="0.8" stroke-linejoin="round"/><polygon points="144.2,58.6 279.8,136.9 265.8,145 130.2,66.7" fill="#b98a57" stroke="#5e4122" stroke-width="0.8" stroke-linejoin="round"/><polygon points="130.2,72.1 265.8,150.4 265.8,145 130.2,66.7" fill="#8f6639" stroke="#5e4122" stroke-width="0.8" stroke-linejoin="round"/><polygon points="279.8,142.3 265.8,150.4 265.8,145 279.8,136.9" fill="#77532d" stroke="#5e4122" stroke-width="0.8" stroke-linejoin="round"/><polygon points="123.2,70.8 258.8,149.1 244.8,157.1 109.1,78.9" fill="#b98a57" stroke="#5e4122" stroke-width="0.8" stroke-linejoin="round"/><polygon points="109.1,84.3 244.8,162.5 244.8,157.1 109.1,78.9" fill="#8f6639" stroke="#5e4122" stroke-width="0.8" stroke-linejoin="round"/><polygon points="258.8,154.5 244.8,162.5 244.8,157.1 258.8,149.1" fill="#77532d" stroke="#5e4122" stroke-width="0.8" stroke-linejoin="round"/><polygon points="102.1,82.9 237.7,161.2 223.7,169.3 88.1,91" fill="#b98a57" stroke="#5e4122" stroke-width="0.8" stroke-linejoin="round"/><polygon points="88.1,96.4 223.7,174.7 223.7,169.3 88.1,91" fill="#8f6639" stroke="#5e4122" stroke-width="0.8" stroke-linejoin="round"/><polygon points="237.7,166.6 223.7,174.7 223.7,169.3 237.7,161.2" fill="#77532d" stroke="#5e4122" stroke-width="0.8" stroke-linejoin="round"/><polygon points="186.3,12.7 229.6,37.7 184,64 140.7,39" fill="#9ba1a8" stroke="#555a60" stroke-width="0.8" stroke-linejoin="round"/><polygon points="140.7,63.3 184,88.3 184,64 140.7,39" fill="#80868d" stroke="#555a60" stroke-width="0.8" stroke-linejoin="round"/><polygon points="229.6,62 184,88.3 184,64 229.6,37.7" fill="#6a7077" stroke="#555a60" stroke-width="0.8" stroke-linejoin="round"/><polygon points="139.5,39.7 182.8,64.7 137.2,91 93.9,66" fill="#9ba1a8" stroke="#555a60" stroke-width="0.8" stroke-linejoin="round"/><polygon points="93.9,90.3 137.2,115.3 137.2,91 93.9,66" fill="#80868d" stroke="#555a60" stroke-width="0.8" stroke-linejoin="round"/><polygon points="182.8,89 137.2,115.3 137.2,91 182.8,64.7" fill="#6a7077" stroke="#555a60" stroke-width="0.8" stroke-linejoin="round"/><polygon points="230.7,38.3 274,63.3 228.4,89.7 185.1,64.7" fill="#9ba1a8" stroke="#555a60" stroke-width="0.8" stroke-linejoin="round"/><polygon points="185.1,89 228.4,114 228.4,89.7 185.1,64.7" fill="#80868d" stroke="#555a60" stroke-width="0.8" stroke-linejoin="round"/><polygon points="274,87.6 228.4,114 228.4,89.7 274,63.3" fill="#6a7077" stroke="#555a60" stroke-width="0.8" stroke-linejoin="round"/><polygon points="184,65.4 227.2,90.3 181.6,116.7 138.4,91.7" fill="#9ba1a8" stroke="#555a60" stroke-width="0.8" stroke-linejoin="round"/><polygon points="138.4,116 181.6,141 181.6,116.7 138.4,91.7" fill="#80868d" stroke="#555a60" stroke-width="0.8" stroke-linejoin="round"/><polygon points="227.2,114.6 181.6,141 181.6,116.7 227.2,90.3" fill="#6a7077" stroke="#555a60" stroke-width="0.8" stroke-linejoin="round"/><polygon points="275.1,64 318.4,89 272.8,115.3 229.6,90.3" fill="#9ba1a8" stroke="#555a60" stroke-width="0.8" stroke-linejoin="round"/><polygon points="229.6,114.6 272.8,139.6 272.8,115.3 229.6,90.3" fill="#80868d" stroke="#555a60" stroke-width="0.8" stroke-linejoin="round"/><polygon points="318.4,113.3 272.8,139.6 272.8,115.3 318.4,89" fill="#6a7077" stroke="#555a60" stroke-width="0.8" stroke-linejoin="round"/><polygon points="228.4,91 271.6,116 226,142.3 182.8,117.3" fill="#9ba1a8" stroke="#555a60" stroke-width="0.8" stroke-linejoin="round"/><polygon points="182.8,141.6 226,166.6 226,142.3 182.8,117.3" fill="#80868d" stroke="#555a60" stroke-width="0.8" stroke-linejoin="round"/><polygon points="271.6,140.3 226,166.6 226,142.3 271.6,116" fill="#6a7077" stroke="#555a60" stroke-width="0.8" stroke-linejoin="round"/><polygon points="186.3,-13 229.6,12 184,38.3 140.7,13.4" fill="#9ba1a8" stroke="#555a60" stroke-width="0.8" stroke-linejoin="round"/><polygon points="140.7,37.7 184,62.7 184,38.3 140.7,13.4" fill="#80868d" stroke="#555a60" stroke-width="0.8" stroke-linejoin="round"/><polygon points="229.6,36.3 184,62.7 184,38.3 229.6,12" fill="#6a7077" stroke="#555a60" stroke-width="0.8" stroke-linejoin="round"/><polygon points="139.5,14 182.8,39 137.2,65.4 93.9,40.4" fill="#9ba1a8" stroke="#555a60" stroke-width="0.8" stroke-linejoin="round"/><polygon points="93.9,64.7 137.2,89.7 137.2,65.4 93.9,40.4" fill="#80868d" stroke="#555a60" stroke-width="0.8" stroke-linejoin="round"/><polygon points="182.8,63.3 137.2,89.7 137.2,65.4 182.8,39" fill="#6a7077" stroke="#555a60" stroke-width="0.8" stroke-linejoin="round"/><polygon points="230.7,12.7 274,37.7 228.4,64 185.1,39" fill="#9ba1a8" stroke="#555a60" stroke-width="0.8" stroke-linejoin="round"/><polygon points="185.1,63.3 228.4,88.3 228.4,64 185.1,39" fill="#80868d" stroke="#555a60" stroke-width="0.8" stroke-linejoin="round"/><polygon points="274,62 228.4,88.3 228.4,64 274,37.7" fill="#6a7077" stroke="#555a60" stroke-width="0.8" stroke-linejoin="round"/><polygon points="184,39.7 227.2,64.7 181.6,91 138.4,66" fill="#9ba1a8" stroke="#555a60" stroke-width="0.8" stroke-linejoin="round"/><polygon points="138.4,90.3 181.6,115.3 181.6,91 138.4,66" fill="#80868d" stroke="#555a60" stroke-width="0.8" stroke-linejoin="round"/><polygon points="227.2,89 181.6,115.3 181.6,91 227.2,64.7" fill="#6a7077" stroke="#555a60" stroke-width="0.8" stroke-linejoin="round"/><polygon points="275.1,38.3 318.4,63.3 272.8,89.7 229.6,64.7" fill="#9ba1a8" stroke="#555a60" stroke-width="0.8" stroke-linejoin="round"/><polygon points="229.6,89 272.8,114 272.8,89.7 229.6,64.7" fill="#80868d" stroke="#555a60" stroke-width="0.8" stroke-linejoin="round"/><polygon points="318.4,87.6 272.8,114 272.8,89.7 318.4,63.3" fill="#6a7077" stroke="#555a60" stroke-width="0.8" stroke-linejoin="round"/><polygon points="228.4,65.4 271.6,90.3 226,116.7 182.8,91.7" fill="#9ba1a8" stroke="#555a60" stroke-width="0.8" stroke-linejoin="round"/><polygon points="182.8,116 226,141 226,116.7 182.8,91.7" fill="#80868d" stroke="#555a60" stroke-width="0.8" stroke-linejoin="round"/><polygon points="271.6,114.6 226,141 226,116.7 271.6,90.3" fill="#6a7077" stroke="#555a60" stroke-width="0.8" stroke-linejoin="round"/><polygon points="186.3,-38.6 229.6,-13.6 184,12.7 140.7,-12.3" fill="#9ba1a8" stroke="#555a60" stroke-width="0.8" stroke-linejoin="round"/><polygon points="140.7,12 184,37 184,12.7 140.7,-12.3" fill="#80868d" stroke="#555a60" stroke-width="0.8" stroke-linejoin="round"/><polygon points="229.6,10.7 184,37 184,12.7 229.6,-13.6" fill="#6a7077" stroke="#555a60" stroke-width="0.8" stroke-linejoin="round"/><polygon points="185.1,-31.2 199.2,-23.1 167.6,-4.9 153.6,-13" fill="#3f444a"/><polygon points="202.7,-21.1 216.7,-13 185.1,5.3 171.1,-2.8" fill="#3f444a"/><polygon points="139.5,-11.6 182.8,13.4 137.2,39.7 93.9,14.7" fill="#9ba1a8" stroke="#555a60" stroke-width="0.8" stroke-linejoin="round"/><polygon points="93.9,39 137.2,64 137.2,39.7 93.9,14.7" fill="#80868d" stroke="#555a60" stroke-width="0.8" stroke-linejoin="round"/><polygon points="182.8,37.7 137.2,64 137.2,39.7 182.8,13.4" fill="#6a7077" stroke="#555a60" stroke-width="0.8" stroke-linejoin="round"/><polygon points="138.4,-4.2 152.4,3.9 120.8,22.1 106.8,14" fill="#3f444a"/><polygon points="155.9,5.9 169.9,14 138.4,32.3 124.3,24.2" fill="#3f444a"/><polygon points="230.7,-13 274,12 228.4,38.3 185.1,13.4" fill="#9ba1a8" stroke="#555a60" stroke-width="0.8" stroke-linejoin="round"/><polygon points="185.1,37.7 228.4,62.7 228.4,38.3 185.1,13.4" fill="#80868d" stroke="#555a60" stroke-width="0.8" stroke-linejoin="round"/><polygon points="274,36.3 228.4,62.7 228.4,38.3 274,12" fill="#6a7077" stroke="#555a60" stroke-width="0.8" stroke-linejoin="round"/><polygon points="229.6,-5.5 243.6,2.6 212,20.8 198,12.7" fill="#3f444a"/><polygon points="247.1,4.6 261.1,12.7 229.6,30.9 215.5,22.8" fill="#3f444a"/><polygon points="184,14 227.2,39 181.6,65.4 138.4,40.4" fill="#9ba1a8" stroke="#555a60" stroke-width="0.8" stroke-linejoin="round"/><polygon points="138.4,64.7 181.6,89.7 181.6,65.4 138.4,40.4" fill="#80868d" stroke="#555a60" stroke-width="0.8" stroke-linejoin="round"/><polygon points="227.2,63.3 181.6,89.7 181.6,65.4 227.2,39" fill="#6a7077" stroke="#555a60" stroke-width="0.8" stroke-linejoin="round"/><polygon points="182.8,21.5 196.8,29.6 165.2,47.8 151.2,39.7" fill="#3f444a"/><polygon points="200.3,31.6 214.4,39.7 182.8,57.9 168.8,49.8" fill="#3f444a"/><polygon points="275.1,12.7 318.4,37.7 272.8,64 229.6,39" fill="#9ba1a8" stroke="#555a60" stroke-width="0.8" stroke-linejoin="round"/><polygon points="229.6,63.3 272.8,88.3 272.8,64 229.6,39" fill="#80868d" stroke="#555a60" stroke-width="0.8" stroke-linejoin="round"/><polygon points="318.4,62 272.8,88.3 272.8,64 318.4,37.7" fill="#6a7077" stroke="#555a60" stroke-width="0.8" stroke-linejoin="round"/><polygon points="274,20.1 288,28.2 256.4,46.4 242.4,38.3" fill="#3f444a"/><polygon points="291.5,30.2 305.5,38.3 274,56.6 259.9,48.5" fill="#3f444a"/><polygon points="228.4,39.7 271.6,64.7 226,91 182.8,66" fill="#9ba1a8" stroke="#555a60" stroke-width="0.8" stroke-linejoin="round"/><polygon points="182.8,90.3 226,115.3 226,91 182.8,66" fill="#80868d" stroke="#555a60" stroke-width="0.8" stroke-linejoin="round"/><polygon points="271.6,89 226,115.3 226,91 271.6,64.7" fill="#6a7077" stroke="#555a60" stroke-width="0.8" stroke-linejoin="round"/><polygon points="227.2,47.1 241.2,55.2 209.7,73.4 195.6,65.4" fill="#3f444a"/><polygon points="244.8,57.3 258.8,65.4 227.2,83.6 213.2,75.5" fill="#3f444a"/></svg>
