<svg xmlns="http://www.w3.org/2000/svg" viewBox="7.4 1.3 385.1 288.8" width="400" height="300" role="img" aria-hidden="true"><defs><radialGradient id="shade"><stop offset="0" stop-color="#000" stop-opacity="0.5"/><stop offset="0.6" stop-color="#000" stop-opacity="0.18"/><stop offset="1" stop-color="#000" stop-opacity="0"/></radialGradient><linearGradient id="g1" gradientUnits="userSpaceOnUse" x1="36" y1="0" x2="188" y2="0"><stop offset="0" stop-color="#6d7580"/><stop offset="0.45" stop-color="#d5dbe2"/><stop offset="1" stop-color="#7c8591"/></linearGradient><linearGradient id="g2" gradientUnits="userSpaceOnUse" x1="0" y1="130" x2="0" y2="168"><stop offset="0" stop-color="#8a939f"/><stop offset="0.45" stop-color="#d5dbe2"/><stop offset="1" stop-color="#59616b"/></linearGradient><linearGradient id="g3" gradientUnits="userSpaceOnUse" x1="0" y1="122" x2="0" y2="178"><stop offset="0" stop-color="#ffb27a"/><stop offset="0.35" stop-color="#ff7a1a"/><stop offset="1" stop-color="#c85a0c"/></linearGradient></defs><ellipse cx="200" cy="192.9" rx="185.9" ry="43.2" fill="url(#shade)"/><g>
      <path d="M322 152 q 30 2 40 30" stroke="#1f2328" stroke-width="6" fill="none" stroke-linecap="round"/>
      <ellipse cx="112" cy="192" rx="76" ry="15" fill="#3a4047"/>
      <ellipse cx="112" cy="188" rx="76" ry="15" fill="url(#g1)"/>
      <ellipse cx="112" cy="188" rx="46" ry="9" fill="none" stroke="#8a939f" stroke-width="1"/>
      <ellipse cx="112" cy="188" rx="16" ry="4" fill="#2d3238"/>
      <path d="M40 186 A 74 14 0 0 1 184 186" fill="none" stroke="#2d3238" stroke-width="9"/>
      <rect x="106" y="160" width="12" height="28" fill="#59616b"/>
      <path d="M92 132 h60 v36 h-60 a10 10 0 0 1 -10 -10 v-16 a10 10 0 0 1 10 -10z" fill="url(#g2)"/>
      <g transform="rotate(-14 118 134)"><rect x="110" y="70" width="17" height="66" rx="8" fill="#2d3238"/></g>
      <path d="M150 124 h150 a28 28 0 0 1 0 56 h-150 z" fill="url(#g3)"/>
      <path d="M150 124 h150 a28 28 0 0 1 24 14 h-174z" fill="#fff" opacity="0.18"/>
      <path d="M262 124 h38 a28 28 0 0 1 0 56 h-38 z" fill="#2d3238"/>
      <rect x="278" y="134" width="3.5" height="30" rx="1.75" fill="#454c55"/><rect x="285" y="134" width="3.5" height="30" rx="1.75" fill="#454c55"/><rect x="292" y="134" width="3.5" height="30" rx="1.75" fill="#454c55"/><rect x="299" y="134" width="3.5" height="30" rx="1.75" fill="#454c55"/>
      <rect x="182" y="117" width="54" height="10" rx="5" fill="#1f2328"/>
      <rect x="196" y="148" width="44" height="6" rx="3" fill="#1f2328" opacity="0.5"/>
    </g></svg>
