<svg xmlns="http://www.w3.org/2000/svg" viewBox="47.3 -15.9 305.3 229" width="400" height="300" role="img" aria-hidden="true"><defs><radialGradient id="shade"><stop offset="0" stop-color="#000" stop-opacity="0.5"/><stop offset="0.6" stop-color="#000" stop-opacity="0.18"/><stop offset="1" stop-color="#000" stop-opacity="0"/></radialGradient></defs><ellipse cx="200" cy="180.1" rx="69.4" ry="16.1" fill="url(#shade)"/><polygon points="185.7,4.2 261.9,48.2 214.3,75.7 138.1,31.7" fill="#f2f4f6" stroke="#9aa3ad" stroke-width="0.8" stroke-linejoin="round"/><polygon points="138.1,141.8 214.3,185.8 214.3,75.7 138.1,31.7" fill="#dde2e7" stroke="#9aa3ad" stroke-width="0.8" stroke-linejoin="round"/><polygon points="261.9,158.3 214.3,185.8 214.3,75.7 261.9,48.2" fill="#c3cad2" stroke="#9aa3ad" stroke-width="0.8" stroke-linejoin="round"/><polygon points="179,5.9 217.1,27.9 201.9,36.7 163.8,14.7" fill="#c3cad2" stroke="#6d7580" stroke-width="0.8" stroke-linejoin="round"/><polygon points="163.8,27.9 201.9,49.9 201.9,36.7 163.8,14.7" fill="#aab2bc" stroke="#6d7580" stroke-width="0.8" stroke-linejoin="round"/><polygon points="217.1,41.1 201.9,49.9 201.9,36.7 217.1,27.9" fill="#8f98a3" stroke="#6d7580" stroke-width="0.8" stroke-linejoin="round"/><polygon points="228.6,34.5 241.9,42.2 228.6,49.9 215.2,42.2" fill="#4d8fd6" stroke="#234f82" stroke-width="0.8" stroke-linejoin="round"/><polygon points="215.2,55.4 228.6,63.1 228.6,49.9 215.2,42.2" fill="#3a79bd" stroke="#234f82" stroke-width="0.8" stroke-linejoin="round"/><polygon points="241.9,55.4 228.6,63.1 228.6,49.9 241.9,42.2" fill="#2c62a0" stroke="#234f82" stroke-width="0.8" stroke-linejoin="round"/><polygon points="141.9,111 210.5,150.6 210.5,104.4 141.9,64.7" fill="#4d8fd6"/><polygon points="151.4,103.2 185.7,123.1 185.7,103.3 151.4,83.4" fill="#f2f4f6"/><polygon points="257.2,128 219.1,150 219.1,103.8 257.2,81.8" fill="#2c62a0"/></svg>
