<svg xmlns="http://www.w3.org/2000/svg" viewBox="2.1 6.3 364.6 273.5" width="400" height="300" role="img" aria-hidden="true"><defs><radialGradient id="shade"><stop offset="0" stop-color="#000" stop-opacity="0.5"/><stop offset="0.6" stop-color="#000" stop-opacity="0.18"/><stop offset="1" stop-color="#000" stop-opacity="0"/></radialGradient></defs><ellipse cx="184.4" cy="226.2" rx="158.9" ry="36.9" fill="url(#shade)"/><polygon points="131.4,55.5 326.3,168 309.1,177.9 114.3,65.4" fill="#d5dbe2" stroke="#6f7883" stroke-width="0.8" stroke-linejoin="round"/><polygon points="114.3,74.4 309.1,186.9 309.1,177.9 114.3,65.4" fill="#aeb7c1" stroke="#6f7883" stroke-width="0.8" stroke-linejoin="round"/><polygon points="326.3,177 309.1,186.9 309.1,177.9 326.3,168" fill="#8f99a5" stroke="#6f7883" stroke-width="0.8" stroke-linejoin="round"/><polygon points="130.7,59.6 322.4,170.3 313,175.6 121.3,65" fill="#8c96a2"/><polygon points="322.4,176.6 313,182 313,175.6 322.4,170.3" fill="#5d6670"/><polygon points="113.5,68.6 308.4,181.1 291.2,191 96.4,78.5" fill="#d5dbe2" stroke="#6f7883" stroke-width="0.8" stroke-linejoin="round"/><polygon points="96.4,87.5 291.2,200 291.2,191 96.4,78.5" fill="#aeb7c1" stroke="#6f7883" stroke-width="0.8" stroke-linejoin="round"/><polygon points="308.4,190.1 291.2,200 291.2,191 308.4,181.1" fill="#8f99a5" stroke="#6f7883" stroke-width="0.8" stroke-linejoin="round"/><polygon points="112.7,72.6 304.5,183.3 295.1,188.7 103.4,78" fill="#8c96a2"/><polygon points="304.5,189.6 295.1,195 295.1,188.7 304.5,183.3" fill="#5d6670"/><polygon points="95.6,81.6 290.4,194.1 273.3,204 78.4,91.5" fill="#d5dbe2" stroke="#6f7883" stroke-width="0.8" stroke-linejoin="round"/><polygon points="78.4,100.5 273.3,213 273.3,204 78.4,91.5" fill="#aeb7c1" stroke="#6f7883" stroke-width="0.8" stroke-linejoin="round"/><polygon points="290.4,203.1 273.3,213 273.3,204 290.4,194.1" fill="#8f99a5" stroke="#6f7883" stroke-width="0.8" stroke-linejoin="round"/><polygon points="94.8,85.7 286.5,196.4 277.2,201.8 85.5,91.1" fill="#8c96a2"/><polygon points="286.5,202.7 277.2,208.1 277.2,201.8 286.5,196.4" fill="#5d6670"/><polygon points="77.7,94.7 272.5,207.2 255.4,217.1 60.5,104.6" fill="#d5dbe2" stroke="#6f7883" stroke-width="0.8" stroke-linejoin="round"/><polygon points="60.5,113.6 255.4,226.1 255.4,217.1 60.5,104.6" fill="#aeb7c1" stroke="#6f7883" stroke-width="0.8" stroke-linejoin="round"/><polygon points="272.5,216.2 255.4,226.1 255.4,217.1 272.5,207.2" fill="#8f99a5" stroke="#6f7883" stroke-width="0.8" stroke-linejoin="round"/><polygon points="76.9,98.7 268.6,209.4 259.3,214.8 67.5,104.1" fill="#8c96a2"/><polygon points="268.6,215.7 259.3,221.1 259.3,214.8 268.6,209.4" fill="#5d6670"/><polygon points="59.7,107.7 254.6,220.2 237.4,230.1 42.6,117.6" fill="#d5dbe2" stroke="#6f7883" stroke-width="0.8" stroke-linejoin="round"/><polygon points="42.6,126.6 237.4,239.1 237.4,230.1 42.6,117.6" fill="#aeb7c1" stroke="#6f7883" stroke-width="0.8" stroke-linejoin="round"/><polygon points="254.6,229.2 237.4,239.1 237.4,230.1 254.6,220.2" fill="#8f99a5" stroke="#6f7883" stroke-width="0.8" stroke-linejoin="round"/><polygon points="59,111.8 250.7,222.5 241.3,227.9 49.6,117.2" fill="#8c96a2"/><polygon points="250.7,228.8 241.3,234.2 241.3,227.9 250.7,222.5" fill="#5d6670"/><polygon points="131.4,42.9 326.3,155.4 309.1,165.3 114.3,52.8" fill="#d5dbe2" stroke="#6f7883" stroke-width="0.8" stroke-linejoin="round"/><polygon points="114.3,61.8 309.1,174.3 309.1,165.3 114.3,52.8" fill="#aeb7c1" stroke="#6f7883" stroke-width="0.8" stroke-linejoin="round"/><polygon points="326.3,164.4 309.1,174.3 309.1,165.3 326.3,155.4" fill="#8f99a5" stroke="#6f7883" stroke-width="0.8" stroke-linejoin="round"/><polygon points="130.7,47 322.4,157.7 313,163 121.3,52.4" fill="#8c96a2"/><polygon points="322.4,164 313,169.3 313,163 322.4,157.7" fill="#5d6670"/><polygon points="113.5,56 308.4,168.5 291.2,178.4 96.4,65.9" fill="#d5dbe2" stroke="#6f7883" stroke-width="0.8" stroke-linejoin="round"/><polygon points="96.4,74.9 291.2,187.4 291.2,178.4 96.4,65.9" fill="#aeb7c1" stroke="#6f7883" stroke-width="0.8" stroke-linejoin="round"/><polygon points="308.4,177.5 291.2,187.4 291.2,178.4 308.4,168.5" fill="#8f99a5" stroke="#6f7883" stroke-width="0.8" stroke-linejoin="round"/><polygon points="112.7,60 304.5,170.7 295.1,176.1 103.4,65.4" fill="#8c96a2"/><polygon points="304.5,177 295.1,182.4 295.1,176.1 304.5,170.7" fill="#5d6670"/><polygon points="95.6,69 290.4,181.5 273.3,191.4 78.4,78.9" fill="#d5dbe2" stroke="#6f7883" stroke-width="0.8" stroke-linejoin="round"/><polygon points="78.4,87.9 273.3,200.4 273.3,191.4 78.4,78.9" fill="#aeb7c1" stroke="#6f7883" stroke-width="0.8" stroke-linejoin="round"/><polygon points="290.4,190.5 273.3,200.4 273.3,191.4 290.4,181.5" fill="#8f99a5" stroke="#6f7883" stroke-width="0.8" stroke-linejoin="round"/><polygon points="94.8,73.1 286.5,183.8 277.2,189.2 85.5,78.5" fill="#8c96a2"/><polygon points="286.5,190 277.2,195.5 277.2,189.2 286.5,183.8" fill="#5d6670"/><polygon points="77.7,82.1 272.5,194.5 255.4,204.5 60.5,92" fill="#d5dbe2" stroke="#6f7883" stroke-width="0.8" stroke-linejoin="round"/><polygon points="60.5,101 255.4,213.5 255.4,204.5 60.5,92" fill="#aeb7c1" stroke="#6f7883" stroke-width="0.8" stroke-linejoin="round"/><polygon points="272.5,203.5 255.4,213.5 255.4,204.5 272.5,194.5" fill="#8f99a5" stroke="#6f7883" stroke-width="0.8" stroke-linejoin="round"/><polygon points="76.9,86.1 268.6,196.8 259.3,202.2 67.5,91.5" fill="#8c96a2"/><polygon points="268.6,203.1 259.3,208.5 259.3,202.2 268.6,196.8" fill="#5d6670"/><polygon points="59.7,95.1 254.6,207.6 237.4,217.5 42.6,105" fill="#d5dbe2" stroke="#6f7883" stroke-width="0.8" stroke-linejoin="round"/><polygon points="42.6,114 237.4,226.5 237.4,217.5 42.6,105" fill="#aeb7c1" stroke="#6f7883" stroke-width="0.8" stroke-linejoin="round"/><polygon points="254.6,216.6 237.4,226.5 237.4,217.5 254.6,207.6" fill="#8f99a5" stroke="#6f7883" stroke-width="0.8" stroke-linejoin="round"/><polygon points="59,99.2 250.7,209.9 241.3,215.3 49.6,104.6" fill="#8c96a2"/><polygon points="250.7,216.2 241.3,221.6 241.3,215.3 250.7,209.9" fill="#5d6670"/><polygon points="131.4,30.3 326.3,142.8 309.1,152.7 114.3,40.2" fill="#d5dbe2" stroke="#6f7883" stroke-width="0.8" stroke-linejoin="round"/><polygon points="114.3,49.2 309.1,161.7 309.1,152.7 114.3,40.2" fill="#aeb7c1" stroke="#6f7883" stroke-width="0.8" stroke-linejoin="round"/><polygon points="326.3,151.8 309.1,161.7 309.1,152.7 326.3,142.8" fill="#8f99a5" stroke="#6f7883" stroke-width="0.8" stroke-linejoin="round"/><polygon points="130.7,34.4 322.4,145.1 313,150.5 121.3,39.8" fill="#8c96a2"/><polygon points="322.4,151.4 313,156.7 313,150.5 322.4,145.1" fill="#5d6670"/><polygon points="113.5,43.4 308.4,155.9 291.2,165.8 96.4,53.3" fill="#d5dbe2" stroke="#6f7883" stroke-width="0.8" stroke-linejoin="round"/><polygon points="96.4,62.3 291.2,174.8 291.2,165.8 96.4,53.3" fill="#aeb7c1" stroke="#6f7883" stroke-width="0.8" stroke-linejoin="round"/><polygon points="308.4,164.9 291.2,174.8 291.2,165.8 308.4,155.9" fill="#8f99a5" stroke="#6f7883" stroke-width="0.8" stroke-linejoin="round"/><polygon points="112.7,47.4 304.5,158.1 295.1,163.5 103.4,52.8" fill="#8c96a2"/><polygon points="304.5,164.4 295.1,169.8 295.1,163.5 304.5,158.1" fill="#5d6670"/><polygon points="95.6,56.4 290.4,168.9 273.3,178.8 78.4,66.3" fill="#d5dbe2" stroke="#6f7883" stroke-width="0.8" stroke-linejoin="round"/><polygon points="78.4,75.3 273.3,187.8 273.3,178.8 78.4,66.3" fill="#aeb7c1" stroke="#6f7883" stroke-width="0.8" stroke-linejoin="round"/><polygon points="290.4,177.9 273.3,187.8 273.3,178.8 290.4,168.9" fill="#8f99a5" stroke="#6f7883" stroke-width="0.8" stroke-linejoin="round"/><polygon points="94.8,60.5 286.5,171.1 277.2,176.6 85.5,65.9" fill="#8c96a2"/><polygon points="286.5,177.5 277.2,182.9 277.2,176.6 286.5,171.1" fill="#5d6670"/><polygon points="77.7,69.5 272.5,182 255.4,191.8 60.5,79.4" fill="#d5dbe2" stroke="#6f7883" stroke-width="0.8" stroke-linejoin="round"/><polygon points="60.5,88.4 255.4,200.9 255.4,191.8 60.5,79.4" fill="#aeb7c1" stroke="#6f7883" stroke-width="0.8" stroke-linejoin="round"/><polygon points="272.5,191 255.4,200.9 255.4,191.8 272.5,182" fill="#8f99a5" stroke="#6f7883" stroke-width="0.8" stroke-linejoin="round"/><polygon points="76.9,73.5 268.6,184.2 259.3,189.6 67.5,78.9" fill="#8c96a2"/><polygon points="268.6,190.5 259.3,195.9 259.3,189.6 268.6,184.2" fill="#5d6670"/><polygon points="59.7,82.5 254.6,195 237.4,204.9 42.6,92.4" fill="#d5dbe2" stroke="#6f7883" stroke-width="0.8" stroke-linejoin="round"/><polygon points="42.6,101.4 237.4,213.9 237.4,204.9 42.6,92.4" fill="#aeb7c1" stroke="#6f7883" stroke-width="0.8" stroke-linejoin="round"/><polygon points="254.6,204 237.4,213.9 237.4,204.9 254.6,195" fill="#8f99a5" stroke="#6f7883" stroke-width="0.8" stroke-linejoin="round"/><polygon points="59,86.6 250.7,197.3 241.3,202.6 49.6,92" fill="#8c96a2"/><polygon points="250.7,203.5 241.3,209 241.3,202.6 250.7,197.3" fill="#5d6670"/></svg>
